<svg width="120" height="40" viewBox="0 0 120 40" fill="none" xmlns="http://www.w3.org/2000/svg">
<g clip-path="url(#clip0_201_2)">
<path d="M110.135 0.00013H9.53468C9.16798 0.00013 8.80568 0.00013 8.43995 0.00213C8.1338 0.00413 7.83009 0.00994 7.521 0.01483C6.84951 0.0227318 6.17961 0.0818063 5.5171 0.19154C4.85552 0.303663 4.21467 0.515046 3.61622 0.81854C3.0185 1.1246 2.47235 1.5223 1.99757 1.9972C1.5203 2.47077 1.12246 3.01815 0.81935 3.61829C0.5154 4.21724 0.304641 4.85907 0.19435 5.52161C0.0830109 6.18332 0.0230984 6.85265 0.01515 7.52361C0.00587 7.83021 0.00489 8.13783 0 8.44447V31.5587C0.00489 31.8692 0.00587 32.17 0.01515 32.4806C0.0231008 33.1516 0.0830134 33.8209 0.19435 34.4825C0.304336 35.1455 0.515108 35.7877 0.81935 36.3868C1.12233 36.985 1.52022 37.5302 1.99757 38.0011C2.47054 38.4781 3.01705 38.8761 3.61622 39.1798C4.21467 39.4841 4.85545 39.6968 5.5171 39.8106C6.17972 39.9195 6.84956 39.9786 7.521 39.9874C7.83009 39.9942 8.1338 39.9981 8.43995 39.9981C8.80567 40.0001 9.168 40.0001 9.53468 40.0001H110.135C110.494 40.0001 110.859 40.0001 111.219 39.9981C111.523 39.9981 111.836 39.9942 112.141 39.9874C112.811 39.9791 113.479 39.92 114.141 39.8106C114.804 39.696 115.448 39.4834 116.049 39.1798C116.647 38.8759 117.193 38.478 117.666 38.0011C118.142 37.5284 118.541 36.9836 118.848 36.3868C119.15 35.7872 119.358 35.1451 119.467 34.4825C119.578 33.8208 119.64 33.1516 119.652 32.4806C119.656 32.17 119.656 31.8692 119.656 31.5587C119.664 31.1954 119.664 30.8341 119.664 30.4649V9.53626C119.664 9.17005 119.664 8.80677 119.656 8.44447C119.656 8.13783 119.656 7.83021 119.652 7.52357C119.64 6.85255 119.578 6.18337 119.467 5.52157C119.358 4.85941 119.149 4.21763 118.848 3.61825C118.23 2.41533 117.252 1.43616 116.049 0.81845C115.448 0.515697 114.804 0.30437 114.141 0.19145C113.48 0.0812328 112.811 0.0221378 112.141 0.01469C111.836 0.00981 111.523 0.00395 111.219 0.002C110.859 0 110.494 0.00013 110.135 0.00013Z" fill="#A6A6A6"/>
<path d="M8.44483 39.125C8.14015 39.125 7.84283 39.1211 7.54054 39.1143C6.91432 39.1061 6.28957 39.0516 5.6714 38.9512C5.09499 38.8519 4.5366 38.6673 4.01466 38.4033C3.4975 38.1415 3.02581 37.7983 2.61766 37.3867C2.2036 36.98 1.85888 36.5082 1.59715 35.9902C1.33254 35.4688 1.14941 34.9099 1.05415 34.333C0.951275 33.7131 0.895615 33.0863 0.887651 32.458C0.881311 32.2471 0.873011 31.5449 0.873011 31.5449V8.44434C0.873011 8.44434 0.881851 7.75293 0.887701 7.5498C0.895327 6.92248 0.950663 6.29665 1.05323 5.67773C1.14867 5.09925 1.33194 4.53875 1.59669 4.01563C1.85746 3.49794 2.20027 3.02586 2.61183 2.61768C3.02293 2.20562 3.49613 1.8606 4.01417 1.59521C4.53492 1.33209 5.09225 1.14873 5.66749 1.05127C6.28769 0.949836 6.91461 0.894996 7.543 0.88721L8.44532 0.875H111.214L112.127 0.8877C112.75 0.895099 113.371 0.94945 113.985 1.05029C114.566 1.14898 115.13 1.33362 115.656 1.59814C116.694 2.13299 117.539 2.97916 118.071 4.01807C118.332 4.53758 118.512 5.09351 118.606 5.66699C118.71 6.29099 118.768 6.92174 118.78 7.5542C118.783 7.8374 118.783 8.1416 118.783 8.44434C118.791 8.81934 118.791 9.17627 118.791 9.53613V30.4648C118.791 30.8281 118.791 31.1826 118.783 31.54C118.783 31.8652 118.783 32.1631 118.779 32.4697C118.768 33.0909 118.71 33.7104 118.608 34.3232C118.515 34.9043 118.333 35.4675 118.068 35.9932C117.805 36.5056 117.462 36.9733 117.053 37.3789C116.644 37.7927 116.172 38.1379 115.653 38.4014C115.128 38.6674 114.566 38.8527 113.985 38.9512C113.367 39.0522 112.742 39.1067 112.116 39.1143C111.823 39.1211 111.517 39.125 111.219 39.125L110.135 39.127L8.44483 39.125Z" fill="black"/>
<path d="M24.7689 20.3007C24.7796 19.466 25.0013 18.6477 25.4134 17.9217C25.8254 17.1957 26.4143 16.5858 27.1254 16.1486C26.6737 15.5035 26.0778 14.9725 25.3849 14.598C24.6921 14.2234 23.9215 14.0156 23.1343 13.991C21.455 13.8147 19.8271 14.9958 18.9714 14.9958C18.0991 14.9958 16.7816 14.0085 15.3629 14.0376C14.4452 14.0673 13.5509 14.3341 12.767 14.8122C11.9831 15.2903 11.3364 15.9632 10.89 16.7655C8.95596 20.1139 10.3985 25.035 12.2512 27.7416C13.1781 29.0669 14.2613 30.5474 15.6788 30.4949C17.0658 30.4374 17.5839 29.6104 19.2582 29.6104C20.917 29.6104 21.403 30.4949 22.8492 30.4615C24.3376 30.4374 25.2753 29.1303 26.1697 27.7924C26.8357 26.848 27.3481 25.8043 27.6881 24.6999C26.8234 24.3341 26.0855 23.722 25.5664 22.9397C25.0472 22.1574 24.7699 21.2396 24.7689 20.3007Z" fill="white"/>
<path d="M22.0373 12.2109C22.8488 11.2367 23.2486 9.98451 23.1518 8.72028C21.9119 8.8505 20.7667 9.44306 19.9442 10.3799C19.542 10.8376 19.2341 11.37 19.0378 11.9468C18.8416 12.5235 18.7609 13.1333 18.8005 13.7413C19.4206 13.7477 20.0341 13.6132 20.5948 13.3482C21.1554 13.0831 21.6487 12.6942 22.0373 12.2109Z" fill="white"/>
<path d="M42.3023 27.1396H37.5689L36.4322 30.4961H34.4273L38.9107 18.0781H40.9937L45.4771 30.4961H43.438L42.3023 27.1396ZM38.0591 25.5908H41.8111L39.9615 20.1435H39.9097L38.0591 25.5908Z" fill="white"/>
<path d="M55.1597 25.9697C55.1597 28.7832 53.6538 30.5908 51.3814 30.5908C50.8057 30.6209 50.2332 30.4883 49.7294 30.2082C49.2256 29.928 48.8109 29.5117 48.5327 29.0068H48.4897V33.4912H46.6313V21.4424H48.4302V22.9482H48.4644C48.7553 22.4458 49.1771 22.0316 49.6847 21.7497C50.1923 21.4679 50.7669 21.3289 51.3472 21.3476C53.645 21.3477 55.1597 23.1641 55.1597 25.9697ZM53.2495 25.9697C53.2495 24.1367 52.3023 22.9316 50.8569 22.9316C49.437 22.9316 48.4819 24.1621 48.4819 25.9697C48.4819 27.7939 49.437 29.0156 50.8569 29.0156C52.3023 29.0156 53.2495 27.8193 53.2495 25.9697Z" fill="white"/>
<path d="M65.1245 25.9697C65.1245 28.7832 63.6187 30.5908 61.3462 30.5908C60.7706 30.6209 60.1981 30.4883 59.6943 30.2082C59.1905 29.928 58.7757 29.5117 58.4976 29.0068H58.4546V33.4912H56.5962V21.4424H58.395V22.9482H58.4292C58.7201 22.4458 59.1419 22.0316 59.6495 21.7497C60.1571 21.4679 60.7317 21.3289 61.312 21.3476C63.6099 21.3476 65.1245 23.164 65.1245 25.9697ZM63.2144 25.9697C63.2144 24.1367 62.2671 22.9316 60.8218 22.9316C59.4019 22.9316 58.4468 24.1621 58.4468 25.9697C58.4468 27.7939 59.4019 29.0156 60.8218 29.0156C62.2671 29.0156 63.2144 27.8193 63.2144 25.9697Z" fill="white"/>
<path d="M71.7105 27.0361C71.8482 28.2676 73.0445 29.0761 74.6792 29.0761C76.2456 29.0761 77.3726 28.2675 77.3726 27.1572C77.3726 26.1933 76.6929 25.6162 75.0835 25.2207L73.4742 24.833C71.1939 24.2822 70.1353 23.2158 70.1353 21.4853C70.1353 19.3427 72.0025 17.871 74.6538 17.871C77.2778 17.871 79.0767 19.3427 79.1372 21.4853H77.2612C77.1489 20.246 76.1245 19.498 74.6274 19.498C73.1304 19.498 72.106 20.2548 72.106 21.3564C72.106 22.2343 72.7603 22.7509 74.3608 23.1464L75.729 23.4823C78.2768 24.0849 79.3354 25.1083 79.3354 26.9247C79.3354 29.248 77.4849 30.703 74.5415 30.703C71.7876 30.703 69.9282 29.2821 69.8081 27.036L71.7105 27.0361Z" fill="white"/>
<path d="M83.3462 19.2998V21.4424H85.0679V22.9141H83.3462V27.9053C83.3462 28.6807 83.6909 29.042 84.4478 29.042C84.6522 29.0384 84.8562 29.0241 85.0591 28.999V30.4619C84.7188 30.5255 84.373 30.5543 84.0269 30.5478C82.1939 30.5478 81.479 29.8593 81.479 28.1035V22.9141H80.1626V21.4424H81.479V19.2998H83.3462Z" fill="white"/>
<path d="M86.065 25.9697C86.065 23.1211 87.7427 21.3311 90.3589 21.3311C92.9839 21.3311 94.6539 23.1211 94.6539 25.9697C94.6539 28.8262 92.9927 30.6084 90.3589 30.6084C87.7261 30.6084 86.065 28.8262 86.065 25.9697ZM92.7603 25.9697C92.7603 24.0156 91.8648 22.8623 90.3589 22.8623C88.8531 22.8623 87.9585 24.0244 87.9585 25.9697C87.9585 27.9316 88.8531 29.0762 90.3589 29.0762C91.8648 29.0762 92.7603 27.9316 92.7603 25.9697Z" fill="white"/>
<path d="M96.1861 21.4424H97.9585V22.9834H98.0015C98.1214 22.5021 98.4034 22.0768 98.8 21.7789C99.1966 21.481 99.6836 21.3287 100.179 21.3476C100.393 21.3469 100.607 21.3702 100.816 21.417V23.1553C100.546 23.0726 100.264 23.0347 99.981 23.043C99.711 23.032 99.4418 23.0796 99.192 23.1825C98.9422 23.2854 98.7175 23.4411 98.5336 23.639C98.3496 23.8369 98.2106 24.0723 98.1262 24.3289C98.0418 24.5856 98.0139 24.8575 98.0444 25.126V30.4961H96.1861L96.1861 21.4424Z" fill="white"/>
<path d="M109.384 27.8369C109.134 29.4805 107.534 30.6084 105.486 30.6084C102.852 30.6084 101.217 28.8437 101.217 26.0127C101.217 23.1729 102.861 21.3311 105.408 21.3311C107.913 21.3311 109.488 23.0518 109.488 25.7969V26.4336H103.093V26.5459C103.064 26.8791 103.105 27.2148 103.216 27.5306C103.326 27.8464 103.502 28.1352 103.732 28.3778C103.963 28.6203 104.242 28.8111 104.552 28.9374C104.861 29.0637 105.195 29.1226 105.529 29.1103C105.968 29.1515 106.409 29.0498 106.785 28.8203C107.162 28.5909 107.455 28.246 107.62 27.8369L109.384 27.8369ZM103.102 25.1348H107.628C107.645 24.8352 107.6 24.5354 107.495 24.2541C107.39 23.9729 107.229 23.7164 107.02 23.5006C106.812 23.2849 106.561 23.1145 106.283 23.0003C106.006 22.8861 105.708 22.8305 105.408 22.8369C105.105 22.8351 104.805 22.8933 104.525 23.008C104.245 23.1227 103.99 23.2918 103.776 23.5054C103.562 23.7191 103.392 23.973 103.276 24.2527C103.16 24.5323 103.101 24.8321 103.102 25.1348Z" fill="white"/>
<path d="M37.9006 9.18182H38.7756V13.3068C38.7756 13.6799 38.7017 13.9991 38.554 14.2642C38.4081 14.5294 38.2027 14.732 37.9375 14.8722C37.6723 15.0104 37.3617 15.0795 37.0057 15.0795C36.678 15.0795 36.3835 15.0199 36.1222 14.9006C35.8627 14.7812 35.6572 14.608 35.5057 14.3807C35.3561 14.1515 35.2812 13.8731 35.2812 13.5455H36.1534C36.1534 13.7064 36.1903 13.8456 36.2642 13.9631C36.34 14.0805 36.4432 14.1723 36.5739 14.2386C36.7064 14.303 36.858 14.3352 37.0284 14.3352C37.214 14.3352 37.3712 14.2964 37.5 14.2188C37.6307 14.1392 37.7301 14.0227 37.7983 13.8693C37.8665 13.7159 37.9006 13.5284 37.9006 13.3068V9.18182ZM41.8232 15.0881C41.4141 15.0881 41.0571 14.9943 40.7521 14.8068C40.4472 14.6193 40.2105 14.357 40.0419 14.0199C39.8733 13.6828 39.7891 13.2888 39.7891 12.8381C39.7891 12.3854 39.8733 11.9896 40.0419 11.6506C40.2105 11.3116 40.4472 11.0483 40.7521 10.8608C41.0571 10.6733 41.4141 10.5795 41.8232 10.5795C42.2322 10.5795 42.5893 10.6733 42.8942 10.8608C43.1991 11.0483 43.4358 11.3116 43.6044 11.6506C43.773 11.9896 43.8572 12.3854 43.8572 12.8381C43.8572 13.2888 43.773 13.6828 43.6044 14.0199C43.4358 14.357 43.1991 14.6193 42.8942 14.8068C42.5893 14.9943 42.2322 15.0881 41.8232 15.0881ZM41.826 14.375C42.0911 14.375 42.3108 14.3049 42.4851 14.1648C42.6593 14.0246 42.7881 13.8381 42.8714 13.6051C42.9567 13.3722 42.9993 13.1155 42.9993 12.8352C42.9993 12.5568 42.9567 12.3011 42.8714 12.0682C42.7881 11.8333 42.6593 11.6449 42.4851 11.5028C42.3108 11.3608 42.0911 11.2898 41.826 11.2898C41.5589 11.2898 41.3374 11.3608 41.1612 11.5028C40.987 11.6449 40.8572 11.8333 40.772 12.0682C40.6887 12.3011 40.647 12.5568 40.647 12.8352C40.647 13.1155 40.6887 13.3722 40.772 13.6051C40.8572 13.8381 40.987 14.0246 41.1612 14.1648C41.3374 14.3049 41.5589 14.375 41.826 14.375ZM44.8054 15V10.6364H45.6548V15H44.8054ZM45.2344 9.96307C45.0866 9.96307 44.9598 9.91383 44.8537 9.81534C44.7495 9.71496 44.6974 9.59564 44.6974 9.45739C44.6974 9.31723 44.7495 9.19792 44.8537 9.09943C44.9598 8.99905 45.0866 8.94886 45.2344 8.94886C45.3821 8.94886 45.508 8.99905 45.6122 9.09943C45.7183 9.19792 45.7713 9.31723 45.7713 9.45739C45.7713 9.59564 45.7183 9.71496 45.6122 9.81534C45.508 9.91383 45.3821 9.96307 45.2344 9.96307ZM47.647 12.4091V15H46.7976V10.6364H47.6129V11.3466H47.6669C47.7673 11.1155 47.9245 10.9299 48.1385 10.7898C48.3544 10.6496 48.6262 10.5795 48.9538 10.5795C49.2512 10.5795 49.5116 10.642 49.7351 10.767C49.9586 10.8902 50.1319 11.0739 50.255 11.3182C50.3781 11.5625 50.4396 11.8646 50.4396 12.2244V15H49.5902V12.3267C49.5902 12.0104 49.5078 11.7633 49.343 11.5852C49.1783 11.4053 48.9519 11.3153 48.6641 11.3153C48.4671 11.3153 48.2919 11.358 48.1385 11.4432C47.987 11.5284 47.8667 11.6534 47.7777 11.8182C47.6906 11.9811 47.647 12.178 47.647 12.4091ZM55.733 10.6364V11.3182H53.3494V10.6364H55.733ZM53.9886 9.59091H54.8381V13.7188C54.8381 13.8835 54.8627 14.0076 54.9119 14.0909C54.9612 14.1723 55.0246 14.2282 55.1023 14.2585C55.1818 14.2869 55.268 14.3011 55.3608 14.3011C55.429 14.3011 55.4886 14.2964 55.5398 14.2869C55.5909 14.2775 55.6307 14.2699 55.6591 14.2642L55.8125 14.9659C55.7633 14.9848 55.6932 15.0038 55.6023 15.0227C55.5114 15.0436 55.3977 15.0549 55.2614 15.0568C55.0379 15.0606 54.8295 15.0208 54.6364 14.9375C54.4432 14.8542 54.2869 14.7254 54.1676 14.5511C54.0483 14.3769 53.9886 14.1581 53.9886 13.8949V9.59091ZM57.6158 12.4091V15H56.7663V9.18182H57.6044V11.3466H57.6584C57.7607 11.1117 57.9169 10.9252 58.1271 10.7869C58.3374 10.6487 58.612 10.5795 58.951 10.5795C59.2502 10.5795 59.5116 10.6411 59.7351 10.7642C59.9605 10.8873 60.1347 11.071 60.2578 11.3153C60.3828 11.5578 60.4453 11.8608 60.4453 12.2244V15H59.5959V12.3267C59.5959 12.0066 59.5135 11.7585 59.3487 11.5824C59.1839 11.4044 58.9548 11.3153 58.6612 11.3153C58.4605 11.3153 58.2805 11.358 58.1214 11.4432C57.9643 11.5284 57.8402 11.6534 57.7493 11.8182C57.6603 11.9811 57.6158 12.178 57.6158 12.4091ZM63.4595 15.0881C63.0296 15.0881 62.6593 14.9962 62.3487 14.8125C62.04 14.6269 61.8014 14.3665 61.6328 14.0312C61.4661 13.6941 61.3828 13.2992 61.3828 12.8466C61.3828 12.3996 61.4661 12.0057 61.6328 11.6648C61.8014 11.3239 62.0362 11.0578 62.3374 10.8665C62.6404 10.6752 62.9946 10.5795 63.3999 10.5795C63.6461 10.5795 63.8847 10.6203 64.1158 10.7017C64.3468 10.7831 64.5542 10.911 64.7379 11.0852C64.9216 11.2595 65.0665 11.4858 65.1726 11.7642C65.2786 12.0407 65.3317 12.3769 65.3317 12.7727V13.0739H61.8629V12.4375H64.4993C64.4993 12.214 64.4538 12.0161 64.3629 11.8438C64.272 11.6695 64.1442 11.5322 63.9794 11.4318C63.8165 11.3314 63.6252 11.2812 63.4055 11.2812C63.1669 11.2812 62.9586 11.34 62.7805 11.4574C62.6044 11.5729 62.468 11.7244 62.3714 11.9119C62.2768 12.0975 62.2294 12.2992 62.2294 12.517V13.0142C62.2294 13.3059 62.2805 13.554 62.3828 13.7585C62.487 13.9631 62.6319 14.1193 62.8175 14.2273C63.0031 14.3333 63.2199 14.3864 63.468 14.3864C63.629 14.3864 63.7758 14.3636 63.9084 14.3182C64.041 14.2708 64.1555 14.2008 64.2521 14.108C64.3487 14.0152 64.4226 13.9006 64.4737 13.7642L65.2777 13.9091C65.2133 14.1458 65.0978 14.3532 64.9311 14.5312C64.7663 14.7074 64.5589 14.8447 64.3089 14.9432C64.0608 15.0398 63.7777 15.0881 63.4595 15.0881ZM68.4595 15V9.18182H69.3089V11.3438H69.3601C69.4093 11.2528 69.4804 11.1477 69.5732 11.0284C69.666 10.9091 69.7947 10.8049 69.9595 10.7159C70.1243 10.625 70.3421 10.5795 70.6129 10.5795C70.9652 10.5795 71.2796 10.6686 71.5561 10.8466C71.8326 11.0246 72.0495 11.2812 72.2067 11.6165C72.3658 11.9517 72.4453 12.3551 72.4453 12.8267C72.4453 13.2983 72.3667 13.7027 72.2095 14.0398C72.0523 14.375 71.8364 14.6335 71.5618 14.8153C71.2872 14.9953 70.9737 15.0852 70.6214 15.0852C70.3563 15.0852 70.1394 15.0407 69.9709 14.9517C69.8042 14.8627 69.6735 14.7585 69.5788 14.6392C69.4841 14.5199 69.4112 14.4138 69.3601 14.321H69.2891V15H68.4595ZM69.2919 12.8182C69.2919 13.125 69.3364 13.3939 69.4254 13.625C69.5144 13.8561 69.6432 14.0369 69.8118 14.1676C69.9804 14.2964 70.1868 14.3608 70.4311 14.3608C70.6849 14.3608 70.897 14.2936 71.0675 14.1591C71.2379 14.0227 71.3667 13.8381 71.4538 13.6051C71.5429 13.3722 71.5874 13.1098 71.5874 12.8182C71.5874 12.5303 71.5438 12.2718 71.4567 12.0426C71.3714 11.8134 71.2427 11.6326 71.0703 11.5C70.8999 11.3674 70.6868 11.3011 70.4311 11.3011C70.1849 11.3011 69.9766 11.3646 69.8061 11.4915C69.6375 11.6184 69.5097 11.7955 69.4226 12.0227C69.3355 12.25 69.2919 12.5152 69.2919 12.8182ZM75.2798 15.0881C74.8499 15.0881 74.4796 14.9962 74.169 14.8125C73.8603 14.6269 73.6217 14.3665 73.4531 14.0312C73.2865 13.6941 73.2031 13.2992 73.2031 12.8466C73.2031 12.3996 73.2865 12.0057 73.4531 11.6648C73.6217 11.3239 73.8565 11.0578 74.1577 10.8665C74.4607 10.6752 74.8149 10.5795 75.2202 10.5795C75.4664 10.5795 75.705 10.6203 75.9361 10.7017C76.1671 10.7831 76.3745 10.911 76.5582 11.0852C76.742 11.2595 76.8868 11.4858 76.9929 11.7642C77.099 12.0407 77.152 12.3769 77.152 12.7727V13.0739H73.6832V12.4375H76.3196C76.3196 12.214 76.2741 12.0161 76.1832 11.8438C76.0923 11.6695 75.9645 11.5322 75.7997 11.4318C75.6368 11.3314 75.4455 11.2812 75.2259 11.2812C74.9872 11.2812 74.7789 11.34 74.6009 11.4574C74.4247 11.5729 74.2884 11.7244 74.1918 11.9119C74.0971 12.0975 74.0497 12.2992 74.0497 12.517V13.0142C74.0497 13.3059 74.1009 13.554 74.2031 13.7585C74.3073 13.9631 74.4522 14.1193 74.6378 14.2273C74.8234 14.3333 75.0402 14.3864 75.2884 14.3864C75.4493 14.3864 75.5961 14.3636 75.7287 14.3182C75.8613 14.2708 75.9759 14.2008 76.0724 14.108C76.169 14.0152 76.2429 13.9006 76.294 13.7642L77.098 13.9091C77.0336 14.1458 76.9181 14.3532 76.7514 14.5312C76.5866 14.7074 76.3793 14.8447 76.1293 14.9432C75.8812 15.0398 75.598 15.0881 75.2798 15.0881ZM80.1314 10.6364V11.3182H77.7479V10.6364H80.1314ZM78.3871 9.59091H79.2365V13.7188C79.2365 13.8835 79.2611 14.0076 79.3104 14.0909C79.3596 14.1723 79.4231 14.2282 79.5007 14.2585C79.5803 14.2869 79.6664 14.3011 79.7592 14.3011C79.8274 14.3011 79.8871 14.2964 79.9382 14.2869C79.9893 14.2775 80.0291 14.2699 80.0575 14.2642L80.2109 14.9659C80.1617 14.9848 80.0916 15.0038 80.0007 15.0227C79.9098 15.0436 79.7962 15.0549 79.6598 15.0568C79.4363 15.0606 79.228 15.0208 79.0348 14.9375C78.8416 14.8542 78.6854 14.7254 78.5661 14.5511C78.4467 14.3769 78.3871 14.1581 78.3871 13.8949V9.59091ZM82.3409 15.0966C82.0644 15.0966 81.8144 15.0455 81.5909 14.9432C81.3674 14.839 81.1903 14.6884 81.0597 14.4915C80.9309 14.2945 80.8665 14.053 80.8665 13.767C80.8665 13.5208 80.9138 13.3182 81.0085 13.1591C81.1032 13 81.2311 12.8741 81.392 12.7812C81.553 12.6884 81.733 12.6184 81.9318 12.571C82.1307 12.5237 82.3333 12.4877 82.5398 12.4631C82.8011 12.4328 83.0133 12.4081 83.1761 12.3892C83.339 12.3684 83.4574 12.3352 83.5312 12.2898C83.6051 12.2443 83.642 12.1705 83.642 12.0682V12.0483C83.642 11.8002 83.572 11.608 83.4318 11.4716C83.2936 11.3352 83.0871 11.267 82.8125 11.267C82.5265 11.267 82.3011 11.3305 82.1364 11.4574C81.9735 11.5824 81.8608 11.7216 81.7983 11.875L81 11.6932C81.0947 11.428 81.233 11.214 81.4148 11.0511C81.5985 10.8864 81.8097 10.767 82.0483 10.6932C82.2869 10.6174 82.5379 10.5795 82.8011 10.5795C82.9754 10.5795 83.16 10.6004 83.3551 10.642C83.5521 10.6818 83.7358 10.7557 83.9062 10.8636C84.0786 10.9716 84.2197 11.1259 84.3295 11.3267C84.4394 11.5256 84.4943 11.7841 84.4943 12.1023V15H83.6648V14.4034H83.6307C83.5758 14.5133 83.4934 14.6212 83.3835 14.7273C83.2737 14.8333 83.1326 14.9214 82.9602 14.9915C82.7879 15.0616 82.5814 15.0966 82.3409 15.0966ZM82.5256 14.4148C82.7604 14.4148 82.9612 14.3684 83.1278 14.2756C83.2964 14.1828 83.4242 14.0616 83.5114 13.9119C83.6004 13.7604 83.6449 13.5985 83.6449 13.4261V12.8636C83.6146 12.8939 83.5559 12.9223 83.4688 12.9489C83.3835 12.9735 83.286 12.9953 83.1761 13.0142C83.0663 13.0312 82.9593 13.0473 82.8551 13.0625C82.7509 13.0758 82.6638 13.0871 82.5938 13.0966C82.429 13.1174 82.2784 13.1525 82.142 13.2017C82.0076 13.2509 81.8996 13.322 81.8182 13.4148C81.7386 13.5057 81.6989 13.6269 81.6989 13.7784C81.6989 13.9886 81.7765 14.1477 81.9318 14.2557C82.0871 14.3617 82.285 14.4148 82.5256 14.4148Z" fill="white"/>
</g>
<defs>
<clipPath id="clip0_201_2">
<rect width="119.664" height="40" fill="white"/>
</clipPath>
</defs>
</svg>
