<svg width="128" height="154" viewBox="0 0 128 154" fill="none" xmlns="http://www.w3.org/2000/svg">
<path fill-rule="evenodd" clip-rule="evenodd" d="M102.985 36.5568C116.291 55.3155 114.26 81.4608 97.904 97.9088L64.1786 131.542L55.6773 123.039L89.3106 89.4062C97.9973 80.7222 101.231 68.6208 99.104 57.4382C77.208 79.3342 55.308 101.142 33.4106 123.039C43.6666 133.295 53.9226 143.551 64.1786 153.807L108.992 108.995C133.845 84.1408 133.384 43.7635 108.992 19.3715C107.143 17.5248 105.111 15.7675 103.077 14.1982C77.0226 40.1608 50.1346 67.1408 25.3733 91.9022C12.16 73.3315 13.9146 47.0902 30.4533 30.4582C39.048 21.9595 50.0426 17.3395 61.3146 16.6915L39.048 39.0528C30.3613 47.6435 27.128 59.7488 29.2533 70.9275L50.1346 50.1395C64.272 35.9101 78.5 21.7742 92.636 7.63816C68.336 -4.56051 38.6786 0.0621521 19.3666 19.3715C-5.30271 44.0408 -5.21071 84.4182 19.3666 108.995L24.912 114.539C51.8893 87.5608 82.6573 56.7915 102.985 36.5568Z" fill="#018346"/>
</svg>
