<svg width="414" height="208" viewBox="0 0 414 208" fill="none" xmlns="http://www.w3.org/2000/svg">
<path fill-rule="evenodd" clip-rule="evenodd" d="M249.985 36.5568C263.291 55.3155 261.26 81.4608 244.904 97.9088L211.179 131.542L202.677 123.039L236.311 89.4062C244.997 80.7222 248.231 68.6208 246.104 57.4382C224.208 79.3342 202.308 101.142 180.411 123.039C190.667 133.295 200.923 143.551 211.179 153.807L255.992 108.995C280.845 84.1408 280.384 43.7635 255.992 19.3715C254.143 17.5248 252.111 15.7675 250.077 14.1982C224.023 40.1608 197.135 67.1408 172.373 91.9022C159.16 73.3315 160.915 47.0902 177.453 30.4582C186.048 21.9595 197.043 17.3395 208.315 16.6915L186.048 39.0528C177.361 47.6435 174.128 59.7488 176.253 70.9275L197.135 50.1395C211.272 35.9101 225.5 21.7742 239.636 7.63816C215.336 -4.56051 185.679 0.0621521 166.367 19.3715C141.697 44.0408 141.789 84.4182 166.367 108.995L171.912 114.539C198.889 87.5608 229.657 56.7915 249.985 36.5568Z" fill="#236523"/>
<path d="M21.359 198.89C21.359 200.264 21.063 201.498 20.471 202.584C19.879 203.674 19.079 204.6 18.071 205.368C17.063 206.138 15.879 206.73 14.519 207.144C13.159 207.56 11.6937 207.768 10.127 207.768C8.59105 207.768 7.01505 207.608 5.39905 207.29C3.78305 206.97 2.30305 206.49 0.959045 205.85L1.82305 202.346C3.00571 202.89 4.31105 203.338 5.73505 203.69C7.15905 204.042 8.59105 204.216 10.031 204.216C12.1097 204.216 13.791 203.778 15.071 202.898C16.351 202.018 16.991 200.746 16.991 199.082C16.991 198.152 16.8057 197.362 16.439 196.704C16.071 196.05 15.567 195.458 14.927 194.928C14.2857 194.402 13.543 193.928 12.695 193.514C11.847 193.098 10.943 192.666 9.98305 192.216C8.89505 191.706 7.84705 191.17 6.83905 190.608C5.83105 190.05 4.94305 189.41 4.17505 188.69C3.40705 187.97 2.79105 187.152 2.32705 186.242C1.86305 185.328 1.63105 184.266 1.63105 183.048C1.63105 181.674 1.87905 180.458 2.37505 179.402C2.87105 178.346 3.56705 177.466 4.46305 176.76C5.35905 176.058 6.43105 175.528 7.67905 175.178C8.92705 174.826 10.303 174.648 11.807 174.648C13.343 174.648 14.8377 174.826 16.295 175.178C17.751 175.528 19.023 175.992 20.111 176.57L19.295 180.074C18.271 179.528 17.103 179.082 15.791 178.73C14.4777 178.378 13.151 178.2 11.807 178.2C7.93505 178.2 5.99905 179.706 5.99905 182.712C5.99905 183.384 6.09505 183.97 6.28705 184.466C6.47905 184.962 6.79105 185.424 7.22305 185.858C7.65505 186.29 8.23105 186.704 8.95105 187.104C9.67105 187.506 10.543 187.962 11.567 188.474C12.591 188.984 13.679 189.536 14.831 190.13C15.983 190.722 17.039 191.424 17.999 192.242C18.959 193.058 19.7577 194.01 20.399 195.096C21.039 196.186 21.359 197.45 21.359 198.89Z" fill="#236523"/>
<path d="M39.4541 207.193V175.225H43.8701V190.729L57.2141 175.225H62.5421L48.7661 191.065L63.4541 207.193H57.8861L43.8701 191.353V207.193H39.4541Z" fill="#236523"/>
<path d="M86.5895 195.913H98.8775L92.7335 179.257L86.5895 195.913ZM107.613 207.193H103.101L100.173 199.465H85.2455L82.3655 207.193H77.8535L90.5735 175.225H94.8935L107.613 207.193Z" fill="#236523"/>
<path d="M142.606 175.226V178.824H133.198V207.194H128.782V178.824H119.374V175.226H142.606Z" fill="#236523"/>
<path d="M159.981 175.226H177.789V178.824H164.397V189.048H177.213V192.648H164.397V203.592H177.933V207.194H159.981V175.226Z" fill="#236523"/>
<path d="M224.35 175.226H228.334L230.639 207.194H226.415L224.878 182.282L215.662 201.432H211.15L201.934 182.282L200.398 207.194H196.174L198.478 175.226H202.462L213.405 197.834L224.35 175.226Z" fill="#236523"/>
<path d="M256.269 195.913H268.559L262.413 179.257L256.269 195.913ZM277.295 207.193H272.783L269.853 199.465H254.925L252.045 207.193H247.533L260.253 175.225H264.575L277.295 207.193Z" fill="#236523"/>
<path d="M310.509 184.537C310.509 183.481 310.301 182.593 309.885 181.873C309.469 181.153 308.901 180.562 308.181 180.097C307.461 179.633 306.613 179.297 305.637 179.089C304.659 178.882 303.629 178.778 302.541 178.778H299.373V191.017H301.725C303.005 191.017 304.181 190.873 305.253 190.585C306.325 190.297 307.253 189.873 308.037 189.313C308.819 188.753 309.429 188.073 309.861 187.273C310.293 186.473 310.509 185.562 310.509 184.537ZM314.926 184.585C314.926 186.121 314.589 187.506 313.917 188.737C313.245 189.969 312.309 191.017 311.109 191.881C309.909 192.745 308.493 193.409 306.861 193.873C305.229 194.338 303.469 194.569 301.581 194.569H299.373V207.193H294.957V175.226H302.685C304.413 175.226 306.021 175.417 307.509 175.801C308.997 176.185 310.293 176.77 311.397 177.553C312.501 178.338 313.365 179.313 313.989 180.481C314.613 181.65 314.926 183.017 314.926 184.585Z" fill="#236523"/>
<path d="M330.91 204.745C330.91 205.513 330.654 206.169 330.142 206.713C329.629 207.257 328.957 207.529 328.126 207.529C327.293 207.529 326.621 207.257 326.109 206.713C325.598 206.169 325.341 205.513 325.341 204.745C325.341 203.977 325.598 203.323 326.109 202.777C326.621 202.233 327.293 201.961 328.126 201.961C328.957 201.961 329.629 202.233 330.142 202.777C330.654 203.323 330.91 203.977 330.91 204.745Z" fill="#236523"/>
<path d="M357.069 195.913H369.358L363.213 179.257L357.069 195.913ZM378.094 207.193H373.582L370.653 199.465H355.725L352.845 207.193H348.333L361.053 175.225H365.374L378.094 207.193Z" fill="#236523"/>
<path d="M395.756 175.226H413.564V178.824H400.173V189.048H412.988V192.648H400.173V203.592H413.708V207.194H395.756V175.226Z" fill="#236523"/>
</svg>
