<svg width="120" height="40" viewBox="0 0 120 40" fill="none" xmlns="http://www.w3.org/2000/svg">
<g clip-path="url(#clip0_204_78)">
<path d="M110.444 0.00013H9.56145C9.19372 0.00013 8.8304 0.00013 8.46364 0.00213C8.15663 0.00413 7.85207 0.00994 7.54211 0.01483C6.86874 0.0227318 6.19695 0.0818063 5.53259 0.19154C4.86915 0.303663 4.2265 0.515046 3.62637 0.81854C3.02697 1.1246 2.47929 1.5223 2.00318 1.9972C1.52457 2.47077 1.12561 3.01815 0.82165 3.61829C0.516847 4.21724 0.305496 4.85907 0.194896 5.52161C0.083244 6.18332 0.0231632 6.85265 0.0151925 7.52361C0.00588648 7.83021 0.00490373 8.13783 0 8.44447V31.5587C0.00490373 31.8692 0.00588648 32.17 0.0151925 32.4806C0.0231657 33.1516 0.0832464 33.8209 0.194896 34.4825C0.30519 35.1455 0.516554 35.7877 0.82165 36.3868C1.12548 36.985 1.52449 37.5302 2.00318 38.0011C2.47748 38.4781 3.02552 38.8761 3.62637 39.1798C4.2265 39.4841 4.86908 39.6968 5.53259 39.8106C6.19707 39.9195 6.86879 39.9786 7.54211 39.9874C7.85207 39.9942 8.15663 39.9981 8.46364 39.9981C8.83039 40.0001 9.19374 40.0001 9.56145 40.0001H110.444C110.804 40.0001 111.171 40.0001 111.531 39.9981C111.837 39.9981 112.15 39.9942 112.455 39.9874C113.128 39.9791 113.798 39.92 114.461 39.8106C115.127 39.696 115.772 39.4834 116.375 39.1798C116.975 38.8759 117.522 38.478 117.996 38.0011C118.474 37.5284 118.874 36.9836 119.181 36.3868C119.484 35.7872 119.693 35.1451 119.802 34.4825C119.914 33.8208 119.976 33.1516 119.988 32.4806C119.992 32.17 119.992 31.8692 119.992 31.5587C120 31.1954 120 30.8341 120 30.4649V9.53626C120 9.17005 120 8.80677 119.992 8.44447C119.992 8.13783 119.992 7.83021 119.988 7.52357C119.976 6.85255 119.914 6.18337 119.802 5.52157C119.693 4.85941 119.484 4.21763 119.181 3.61825C118.562 2.41533 117.581 1.43616 116.375 0.81845C115.772 0.515697 115.127 0.30437 114.461 0.19145C113.798 0.0812328 113.128 0.0221378 112.455 0.01469C112.15 0.00981 111.837 0.00395 111.531 0.002C111.171 0 110.804 0.00013 110.444 0.00013Z" fill="#A6A6A6"/>
<path d="M8.46853 39.125C8.163 39.125 7.86484 39.1211 7.56171 39.1143C6.93373 39.1061 6.30722 39.0516 5.68732 38.9512C5.10929 38.8519 4.54934 38.6673 4.02593 38.4033C3.50732 38.1415 3.0343 37.7983 2.62501 37.3867C2.20978 36.98 1.86409 36.5082 1.60163 35.9902C1.33628 35.4688 1.15264 34.9099 1.05711 34.333C0.953942 33.7131 0.898126 33.0863 0.890139 32.458C0.883781 32.2471 0.875458 31.5449 0.875458 31.5449V8.44434C0.875458 8.44434 0.884323 7.75293 0.890189 7.5498C0.897836 6.92248 0.953328 6.29665 1.05618 5.67773C1.15189 5.09925 1.33567 4.53875 1.60117 4.01563C1.86267 3.49794 2.20644 3.02586 2.61916 2.61768C3.03142 2.20562 3.50594 1.8606 4.02544 1.59521C4.54764 1.33209 5.10654 1.14873 5.6834 1.05127C6.30534 0.949836 6.93402 0.894996 7.56417 0.88721L8.46903 0.875H111.526L112.442 0.8877C113.066 0.895099 113.689 0.94945 114.305 1.05029C114.888 1.14898 115.453 1.33362 115.981 1.59814C117.022 2.13299 117.869 2.97916 118.403 4.01807C118.664 4.53758 118.845 5.09351 118.939 5.66699C119.044 6.29099 119.102 6.92174 119.114 7.5542C119.117 7.8374 119.117 8.1416 119.117 8.44434C119.125 8.81934 119.125 9.17627 119.125 9.53613V30.4648C119.125 30.8281 119.125 31.1826 119.117 31.54C119.117 31.8652 119.117 32.1631 119.113 32.4697C119.101 33.0909 119.044 33.7104 118.941 34.3232C118.848 34.9043 118.665 35.4675 118.4 35.9932C118.135 36.5056 117.792 36.9733 117.381 37.3789C116.972 37.7927 116.498 38.1379 115.978 38.4014C115.451 38.6674 114.887 38.8527 114.305 38.9512C113.685 39.0522 113.059 39.1067 112.431 39.1143C112.137 39.1211 111.83 39.125 111.531 39.125L110.444 39.127L8.46853 39.125Z" fill="black"/>
<path d="M44.9006 9.18182H45.7756V13.3068C45.7756 13.6799 45.7017 13.9991 45.554 14.2642C45.4081 14.5294 45.2027 14.732 44.9375 14.8722C44.6723 15.0104 44.3617 15.0795 44.0057 15.0795C43.678 15.0795 43.3835 15.0199 43.1222 14.9006C42.8627 14.7812 42.6572 14.608 42.5057 14.3807C42.3561 14.1515 42.2812 13.8731 42.2812 13.5455H43.1534C43.1534 13.7064 43.1903 13.8456 43.2642 13.9631C43.34 14.0805 43.4432 14.1723 43.5739 14.2386C43.7064 14.303 43.858 14.3352 44.0284 14.3352C44.214 14.3352 44.3712 14.2964 44.5 14.2188C44.6307 14.1392 44.7301 14.0227 44.7983 13.8693C44.8665 13.7159 44.9006 13.5284 44.9006 13.3068V9.18182ZM48.8232 15.0881C48.4141 15.0881 48.0571 14.9943 47.7521 14.8068C47.4472 14.6193 47.2105 14.357 47.0419 14.0199C46.8733 13.6828 46.7891 13.2888 46.7891 12.8381C46.7891 12.3854 46.8733 11.9896 47.0419 11.6506C47.2105 11.3116 47.4472 11.0483 47.7521 10.8608C48.0571 10.6733 48.4141 10.5795 48.8232 10.5795C49.2322 10.5795 49.5893 10.6733 49.8942 10.8608C50.1991 11.0483 50.4358 11.3116 50.6044 11.6506C50.773 11.9896 50.8572 12.3854 50.8572 12.8381C50.8572 13.2888 50.773 13.6828 50.6044 14.0199C50.4358 14.357 50.1991 14.6193 49.8942 14.8068C49.5893 14.9943 49.2322 15.0881 48.8232 15.0881ZM48.826 14.375C49.0911 14.375 49.3108 14.3049 49.4851 14.1648C49.6593 14.0246 49.7881 13.8381 49.8714 13.6051C49.9567 13.3722 49.9993 13.1155 49.9993 12.8352C49.9993 12.5568 49.9567 12.3011 49.8714 12.0682C49.7881 11.8333 49.6593 11.6449 49.4851 11.5028C49.3108 11.3608 49.0911 11.2898 48.826 11.2898C48.5589 11.2898 48.3374 11.3608 48.1612 11.5028C47.987 11.6449 47.8572 11.8333 47.772 12.0682C47.6887 12.3011 47.647 12.5568 47.647 12.8352C47.647 13.1155 47.6887 13.3722 47.772 13.6051C47.8572 13.8381 47.987 14.0246 48.1612 14.1648C48.3374 14.3049 48.5589 14.375 48.826 14.375ZM51.8054 15V10.6364H52.6548V15H51.8054ZM52.2344 9.96307C52.0866 9.96307 51.9598 9.91383 51.8537 9.81534C51.7495 9.71496 51.6974 9.59564 51.6974 9.45739C51.6974 9.31723 51.7495 9.19792 51.8537 9.09943C51.9598 8.99905 52.0866 8.94886 52.2344 8.94886C52.3821 8.94886 52.508 8.99905 52.6122 9.09943C52.7183 9.19792 52.7713 9.31723 52.7713 9.45739C52.7713 9.59564 52.7183 9.71496 52.6122 9.81534C52.508 9.91383 52.3821 9.96307 52.2344 9.96307ZM54.647 12.4091V15H53.7976V10.6364H54.6129V11.3466H54.6669C54.7673 11.1155 54.9245 10.9299 55.1385 10.7898C55.3544 10.6496 55.6262 10.5795 55.9538 10.5795C56.2512 10.5795 56.5116 10.642 56.7351 10.767C56.9586 10.8902 57.1319 11.0739 57.255 11.3182C57.3781 11.5625 57.4396 11.8646 57.4396 12.2244V15H56.5902V12.3267C56.5902 12.0104 56.5078 11.7633 56.343 11.5852C56.1783 11.4053 55.9519 11.3153 55.6641 11.3153C55.4671 11.3153 55.2919 11.358 55.1385 11.4432C54.987 11.5284 54.8667 11.6534 54.7777 11.8182C54.6906 11.9811 54.647 12.178 54.647 12.4091ZM62.733 10.6364V11.3182H60.3494V10.6364H62.733ZM60.9886 9.59091H61.8381V13.7188C61.8381 13.8835 61.8627 14.0076 61.9119 14.0909C61.9612 14.1723 62.0246 14.2282 62.1023 14.2585C62.1818 14.2869 62.268 14.3011 62.3608 14.3011C62.429 14.3011 62.4886 14.2964 62.5398 14.2869C62.5909 14.2775 62.6307 14.2699 62.6591 14.2642L62.8125 14.9659C62.7633 14.9848 62.6932 15.0038 62.6023 15.0227C62.5114 15.0436 62.3977 15.0549 62.2614 15.0568C62.0379 15.0606 61.8295 15.0208 61.6364 14.9375C61.4432 14.8542 61.2869 14.7254 61.1676 14.5511C61.0483 14.3769 60.9886 14.1581 60.9886 13.8949V9.59091ZM64.6158 12.4091V15H63.7663V9.18182H64.6044V11.3466H64.6584C64.7607 11.1117 64.9169 10.9252 65.1271 10.7869C65.3374 10.6487 65.612 10.5795 65.951 10.5795C66.2502 10.5795 66.5116 10.6411 66.7351 10.7642C66.9605 10.8873 67.1347 11.071 67.2578 11.3153C67.3828 11.5578 67.4453 11.8608 67.4453 12.2244V15H66.5959V12.3267C66.5959 12.0066 66.5135 11.7585 66.3487 11.5824C66.1839 11.4044 65.9548 11.3153 65.6612 11.3153C65.4605 11.3153 65.2805 11.358 65.1214 11.4432C64.9643 11.5284 64.8402 11.6534 64.7493 11.8182C64.6603 11.9811 64.6158 12.178 64.6158 12.4091ZM70.4595 15.0881C70.0296 15.0881 69.6593 14.9962 69.3487 14.8125C69.04 14.6269 68.8014 14.3665 68.6328 14.0312C68.4661 13.6941 68.3828 13.2992 68.3828 12.8466C68.3828 12.3996 68.4661 12.0057 68.6328 11.6648C68.8014 11.3239 69.0362 11.0578 69.3374 10.8665C69.6404 10.6752 69.9946 10.5795 70.3999 10.5795C70.6461 10.5795 70.8847 10.6203 71.1158 10.7017C71.3468 10.7831 71.5542 10.911 71.7379 11.0852C71.9216 11.2595 72.0665 11.4858 72.1726 11.7642C72.2786 12.0407 72.3317 12.3769 72.3317 12.7727V13.0739H68.8629V12.4375H71.4993C71.4993 12.214 71.4538 12.0161 71.3629 11.8438C71.272 11.6695 71.1442 11.5322 70.9794 11.4318C70.8165 11.3314 70.6252 11.2812 70.4055 11.2812C70.1669 11.2812 69.9586 11.34 69.7805 11.4574C69.6044 11.5729 69.468 11.7244 69.3714 11.9119C69.2768 12.0975 69.2294 12.2992 69.2294 12.517V13.0142C69.2294 13.3059 69.2805 13.554 69.3828 13.7585C69.487 13.9631 69.6319 14.1193 69.8175 14.2273C70.0031 14.3333 70.2199 14.3864 70.468 14.3864C70.629 14.3864 70.7758 14.3636 70.9084 14.3182C71.041 14.2708 71.1555 14.2008 71.2521 14.108C71.3487 14.0152 71.4226 13.9006 71.4737 13.7642L72.2777 13.9091C72.2133 14.1458 72.0978 14.3532 71.9311 14.5312C71.7663 14.7074 71.5589 14.8447 71.3089 14.9432C71.0608 15.0398 70.7777 15.0881 70.4595 15.0881ZM75.4595 15V9.18182H76.3089V11.3438H76.3601C76.4093 11.2528 76.4804 11.1477 76.5732 11.0284C76.666 10.9091 76.7947 10.8049 76.9595 10.7159C77.1243 10.625 77.3421 10.5795 77.6129 10.5795C77.9652 10.5795 78.2796 10.6686 78.5561 10.8466C78.8326 11.0246 79.0495 11.2812 79.2067 11.6165C79.3658 11.9517 79.4453 12.3551 79.4453 12.8267C79.4453 13.2983 79.3667 13.7027 79.2095 14.0398C79.0523 14.375 78.8364 14.6335 78.5618 14.8153C78.2872 14.9953 77.9737 15.0852 77.6214 15.0852C77.3563 15.0852 77.1394 15.0407 76.9709 14.9517C76.8042 14.8627 76.6735 14.7585 76.5788 14.6392C76.4841 14.5199 76.4112 14.4138 76.3601 14.321H76.2891V15H75.4595ZM76.2919 12.8182C76.2919 13.125 76.3364 13.3939 76.4254 13.625C76.5144 13.8561 76.6432 14.0369 76.8118 14.1676C76.9804 14.2964 77.1868 14.3608 77.4311 14.3608C77.6849 14.3608 77.897 14.2936 78.0675 14.1591C78.2379 14.0227 78.3667 13.8381 78.4538 13.6051C78.5429 13.3722 78.5874 13.1098 78.5874 12.8182C78.5874 12.5303 78.5438 12.2718 78.4567 12.0426C78.3714 11.8134 78.2427 11.6326 78.0703 11.5C77.8999 11.3674 77.6868 11.3011 77.4311 11.3011C77.1849 11.3011 76.9766 11.3646 76.8061 11.4915C76.6375 11.6184 76.5097 11.7955 76.4226 12.0227C76.3355 12.25 76.2919 12.5152 76.2919 12.8182ZM82.2798 15.0881C81.8499 15.0881 81.4796 14.9962 81.169 14.8125C80.8603 14.6269 80.6217 14.3665 80.4531 14.0312C80.2865 13.6941 80.2031 13.2992 80.2031 12.8466C80.2031 12.3996 80.2865 12.0057 80.4531 11.6648C80.6217 11.3239 80.8565 11.0578 81.1577 10.8665C81.4607 10.6752 81.8149 10.5795 82.2202 10.5795C82.4664 10.5795 82.705 10.6203 82.9361 10.7017C83.1671 10.7831 83.3745 10.911 83.5582 11.0852C83.742 11.2595 83.8868 11.4858 83.9929 11.7642C84.099 12.0407 84.152 12.3769 84.152 12.7727V13.0739H80.6832V12.4375H83.3196C83.3196 12.214 83.2741 12.0161 83.1832 11.8438C83.0923 11.6695 82.9645 11.5322 82.7997 11.4318C82.6368 11.3314 82.4455 11.2812 82.2259 11.2812C81.9872 11.2812 81.7789 11.34 81.6009 11.4574C81.4247 11.5729 81.2884 11.7244 81.1918 11.9119C81.0971 12.0975 81.0497 12.2992 81.0497 12.517V13.0142C81.0497 13.3059 81.1009 13.554 81.2031 13.7585C81.3073 13.9631 81.4522 14.1193 81.6378 14.2273C81.8234 14.3333 82.0402 14.3864 82.2884 14.3864C82.4493 14.3864 82.5961 14.3636 82.7287 14.3182C82.8613 14.2708 82.9759 14.2008 83.0724 14.108C83.169 14.0152 83.2429 13.9006 83.294 13.7642L84.098 13.9091C84.0336 14.1458 83.9181 14.3532 83.7514 14.5312C83.5866 14.7074 83.3793 14.8447 83.1293 14.9432C82.8812 15.0398 82.598 15.0881 82.2798 15.0881ZM87.1314 10.6364V11.3182H84.7479V10.6364H87.1314ZM85.3871 9.59091H86.2365V13.7188C86.2365 13.8835 86.2611 14.0076 86.3104 14.0909C86.3596 14.1723 86.4231 14.2282 86.5007 14.2585C86.5803 14.2869 86.6664 14.3011 86.7592 14.3011C86.8274 14.3011 86.8871 14.2964 86.9382 14.2869C86.9893 14.2775 87.0291 14.2699 87.0575 14.2642L87.2109 14.9659C87.1617 14.9848 87.0916 15.0038 87.0007 15.0227C86.9098 15.0436 86.7962 15.0549 86.6598 15.0568C86.4363 15.0606 86.228 15.0208 86.0348 14.9375C85.8416 14.8542 85.6854 14.7254 85.5661 14.5511C85.4467 14.3769 85.3871 14.1581 85.3871 13.8949V9.59091ZM89.3409 15.0966C89.0644 15.0966 88.8144 15.0455 88.5909 14.9432C88.3674 14.839 88.1903 14.6884 88.0597 14.4915C87.9309 14.2945 87.8665 14.053 87.8665 13.767C87.8665 13.5208 87.9138 13.3182 88.0085 13.1591C88.1032 13 88.2311 12.8741 88.392 12.7812C88.553 12.6884 88.733 12.6184 88.9318 12.571C89.1307 12.5237 89.3333 12.4877 89.5398 12.4631C89.8011 12.4328 90.0133 12.4081 90.1761 12.3892C90.339 12.3684 90.4574 12.3352 90.5312 12.2898C90.6051 12.2443 90.642 12.1705 90.642 12.0682V12.0483C90.642 11.8002 90.572 11.608 90.4318 11.4716C90.2936 11.3352 90.0871 11.267 89.8125 11.267C89.5265 11.267 89.3011 11.3305 89.1364 11.4574C88.9735 11.5824 88.8608 11.7216 88.7983 11.875L88 11.6932C88.0947 11.428 88.233 11.214 88.4148 11.0511C88.5985 10.8864 88.8097 10.767 89.0483 10.6932C89.2869 10.6174 89.5379 10.5795 89.8011 10.5795C89.9754 10.5795 90.16 10.6004 90.3551 10.642C90.5521 10.6818 90.7358 10.7557 90.9062 10.8636C91.0786 10.9716 91.2197 11.1259 91.3295 11.3267C91.4394 11.5256 91.4943 11.7841 91.4943 12.1023V15H90.6648V14.4034H90.6307C90.5758 14.5133 90.4934 14.6212 90.3835 14.7273C90.2737 14.8333 90.1326 14.9214 89.9602 14.9915C89.7879 15.0616 89.5814 15.0966 89.3409 15.0966ZM89.5256 14.4148C89.7604 14.4148 89.9612 14.3684 90.1278 14.2756C90.2964 14.1828 90.4242 14.0616 90.5114 13.9119C90.6004 13.7604 90.6449 13.5985 90.6449 13.4261V12.8636C90.6146 12.8939 90.5559 12.9223 90.4688 12.9489C90.3835 12.9735 90.286 12.9953 90.1761 13.0142C90.0663 13.0312 89.9593 13.0473 89.8551 13.0625C89.7509 13.0758 89.6638 13.0871 89.5938 13.0966C89.429 13.1174 89.2784 13.1525 89.142 13.2017C89.0076 13.2509 88.8996 13.322 88.8182 13.4148C88.7386 13.5057 88.6989 13.6269 88.6989 13.7784C88.6989 13.9886 88.7765 14.1477 88.9318 14.2557C89.0871 14.3617 89.285 14.4148 89.5256 14.4148Z" fill="white"/>
<path d="M27.5231 23.4596C27.3254 23.4597 27.1321 23.399 26.9678 23.2853C26.8034 23.1717 26.6753 23.0101 26.5996 22.821C26.5239 22.632 26.5041 22.4239 26.5426 22.2232C26.5811 22.0225 26.6763 21.8381 26.816 21.6933C26.9558 21.5486 27.1338 21.45 27.3277 21.4101C27.5216 21.3701 27.7225 21.3905 27.9052 21.4688C28.0878 21.5471 28.2439 21.6797 28.3538 21.8498C28.4636 22.02 28.5223 22.22 28.5223 22.4247C28.522 22.699 28.4167 22.962 28.2293 23.156C28.042 23.35 27.788 23.4592 27.5231 23.4596ZM16.4769 23.4596C16.2793 23.4597 16.086 23.399 15.9216 23.2853C15.7573 23.1717 15.6291 23.0101 15.5535 22.821C15.4778 22.632 15.4579 22.4239 15.4965 22.2232C15.535 22.0225 15.6301 21.8381 15.7699 21.6933C15.9096 21.5486 16.0877 21.45 16.2816 21.4101C16.4754 21.3701 16.6764 21.3905 16.859 21.4688C17.0417 21.5471 17.1978 21.6797 17.3077 21.8498C17.4175 22.02 17.4762 22.22 17.4762 22.4247C17.476 22.699 17.3706 22.962 17.1833 23.1561C16.9959 23.3501 16.7419 23.4593 16.4769 23.4596ZM27.8814 17.2272L29.8787 13.6459C29.906 13.5969 29.9237 13.5429 29.9309 13.4869C29.938 13.4309 29.9345 13.374 29.9204 13.3194C29.9063 13.2648 29.8819 13.2136 29.8487 13.1688C29.8155 13.1239 29.7741 13.0863 29.7269 13.058C29.6796 13.0297 29.6274 13.0114 29.5733 13.0039C29.5192 12.9965 29.4643 13.0002 29.4115 13.0148C29.3588 13.0294 29.3094 13.0546 29.266 13.089C29.2227 13.1234 29.1864 13.1662 29.1591 13.2152L27.1366 16.8417C25.5901 16.1109 23.8531 15.704 21.9998 15.704C20.1465 15.704 18.4097 16.1115 16.8632 16.8417L14.8409 13.2152C14.8137 13.1662 14.7773 13.1233 14.7341 13.0889C14.6908 13.0545 14.6414 13.0293 14.5886 13.0147C14.5359 13 14.481 12.9963 14.4269 13.0037C14.3728 13.011 14.3206 13.0294 14.2733 13.0576C14.2261 13.0859 14.1846 13.1235 14.1514 13.1683C14.1182 13.2131 14.0938 13.2642 14.0797 13.3188C14.0656 13.3734 14.0619 13.4303 14.0691 13.4863C14.0762 13.5423 14.0939 13.5963 14.1212 13.6453L16.1186 17.2272C12.6889 19.1584 10.3431 22.753 10 27H34C33.6565 22.753 31.3109 19.1584 27.8814 17.2272Z" fill="#3DDC84"/>
<path fill-rule="evenodd" clip-rule="evenodd" d="M96.6835 31.3363C96.4792 31.4317 96.297 31.5144 96.1328 31.5874L96.1285 31.5944C95.9464 31.6792 95.7757 31.7597 95.6586 31.8125C95.3252 31.9645 94.9547 32.1515 94.567 32.425C94.3739 32.5646 94.1751 32.7196 93.9822 32.9473C93.931 33.0082 93.884 33.0724 93.8414 33.1394C93.7904 33.2181 93.7488 33.3021 93.7173 33.39C93.6767 33.5009 93.6564 33.618 93.6576 33.7358C93.6581 33.8672 93.6944 34.0123 93.7592 34.132C93.8225 34.2527 93.9086 34.3466 93.9924 34.417C94.0692 34.4815 94.1532 34.5372 94.2429 34.583C94.3249 34.6255 94.4048 34.6585 94.4827 34.6868C94.5604 34.7146 94.6366 34.738 94.7121 34.7567C94.8634 34.7955 95.0109 34.821 95.1569 34.8409C95.1935 34.8462 95.2298 34.8507 95.2657 34.8544C95.3008 34.8589 95.336 34.8626 95.3709 34.8668C95.4368 34.8738 95.5037 34.8799 95.5697 34.8869C95.8357 34.915 96.1037 34.9369 96.3747 34.9617C96.6441 34.9844 96.9173 35.0078 97.1917 35.0316C97.4654 35.0566 97.7402 35.0816 98.0134 35.1141C98.2863 35.147 98.5579 35.1898 98.8275 35.2425C98.9616 35.2694 99.0942 35.2995 99.2255 35.332C99.356 35.3671 99.4853 35.4031 99.611 35.4452C99.7377 35.4886 99.862 35.5317 99.982 35.5831C100.105 35.6334 100.231 35.6895 100.354 35.7444C100.599 35.8552 100.837 35.974 101.056 36.1042C101.165 36.1696 101.27 36.2374 101.366 36.3094C101.462 36.3826 101.551 36.4579 101.623 36.5362C101.695 36.6155 101.752 36.6968 101.782 36.7697C101.797 36.8048 101.805 36.8392 101.809 36.8693C101.813 36.8995 101.811 36.9264 101.805 36.9535C101.799 36.9823 101.789 37.0104 101.777 37.0374C102.134 36.978 102.491 36.6898 102.352 36.9423C102.232 37.162 101.474 37.3981 101.124 37.458C101.063 37.4717 101 37.4822 100.937 37.4893C100.742 37.5122 100.546 37.5146 100.358 37.5108C99.9784 37.5012 99.6225 37.4419 99.3134 37.372C99.0032 37.3018 98.7374 37.22 98.5261 37.1438C98.3664 37.0879 98.2099 37.0237 98.0572 36.9516C98.007 36.9278 97.9711 36.9086 97.9465 36.8955C97.9233 36.8831 97.9178 36.8815 97.9075 36.8756C97.6965 36.7962 98.741 37.8821 98.7551 38.1675C98.7694 38.4515 97.1668 38.6839 97.2863 38.7746C97.2997 38.7826 97.3117 38.7856 97.3533 38.7966C97.3941 38.8057 97.832 38.9313 98.11 38.9602C98.3877 38.9883 98.5445 38.9857 98.93 38.9796C99.1357 38.977 99.3411 38.9658 99.5457 38.946C99.7766 38.9237 100.006 38.8885 100.233 38.8406C100.488 38.787 100.736 38.7055 100.972 38.5974C101.098 38.5394 101.223 38.4735 101.348 38.3961C101.472 38.3195 101.59 38.2285 101.712 38.1327C101.881 37.9975 102.065 37.804 102.153 37.7058C102.235 37.6177 102.369 37.4346 102.411 37.3498C102.451 37.2647 102.484 37.1707 102.502 37.0706C102.519 36.9701 102.522 36.8665 102.509 36.7679C102.496 36.6724 102.471 36.5789 102.434 36.4897C102.364 36.3204 102.266 36.1825 102.163 36.0616C101.956 35.8197 101.722 35.6357 101.482 35.4648C101.242 35.2978 100.993 35.1443 100.735 35.005C100.606 34.935 100.476 34.8682 100.344 34.8046C100.207 34.7391 100.068 34.6785 99.9267 34.623C99.6472 34.5132 99.3628 34.4155 99.0744 34.3303C98.5095 34.1622 97.9341 34.0299 97.3518 33.9343C97.0695 33.8896 96.7858 33.8534 96.5012 33.8256C96.2261 33.7992 95.9505 33.7797 95.6744 33.7671C95.6068 33.7645 95.5396 33.7601 95.4729 33.7585L95.3785 33.755C95.3498 33.754 95.3202 33.7517 95.2913 33.7498C95.1749 33.7435 95.0632 33.7311 94.9624 33.7138C94.9114 33.706 94.8609 33.6957 94.8111 33.6827C94.6199 33.6411 94.3467 33.5107 94.2585 33.4316C94.1763 33.3564 94.1526 33.261 94.17 33.2198C94.1844 33.1787 94.3051 33.2385 94.4401 33.3267C94.5243 33.3828 94.6237 33.423 94.7229 33.4646C94.7257 33.4613 94.8139 33.3435 94.877 33.2706C94.9272 33.2133 94.9829 33.1588 95.0381 33.1041C99.7229 29.0191 110.21 28.5618 110.21 28.5618V28.4262C109.759 27.3967 108.752 25.1129 106.9 23.1288C103.656 26.69 99.0158 30.2446 96.6835 31.3363ZM52.7177 18.8033C52.7177 18.7563 52.7177 18.6307 52.7015 18.5365H49.1717C49.0756 18.7878 49.0433 19.4155 49.0756 19.6977C49.3163 19.7444 49.7654 19.8076 50.0866 19.8394L49.5567 25.3471C49.3803 27.1517 48.4981 28.5644 46.7012 28.5644C45.2088 28.5644 44.5027 27.67 44.5027 25.991C44.5027 25.8023 44.519 25.4727 44.535 25.3002L44.9521 19.8232C45.3211 19.8078 45.8508 19.7447 46.1715 19.6823C46.2679 19.4155 46.3319 18.7878 46.3159 18.5365H42.032C42 18.6936 42 18.8502 42 19.0073C42 19.2425 42.016 19.4625 42.0478 19.6823C42.3528 19.7447 42.7864 19.8078 43.1229 19.8232L42.6095 25.4257C42.5785 25.7072 42.5625 25.99 42.5617 26.2731C42.5617 28.6273 43.7329 29.8511 46.2196 29.8511C49.4284 29.8511 50.9045 27.9837 51.1132 25.2375L51.5303 19.8232C51.8353 19.8078 52.3004 19.7447 52.5731 19.6823C52.6697 19.4466 52.7177 19.0698 52.7177 18.8033ZM55.6653 28.5953C55.3125 28.5953 54.9917 28.5326 54.7508 28.4386L55.2484 24.3269C55.6495 23.605 56.2427 23.1188 56.9488 23.1188C57.7351 23.1188 58.12 23.7151 58.12 25.1274C58.12 26.7592 57.6068 28.5953 55.6653 28.5953ZM57.6711 21.8007C56.4997 21.8007 55.7296 22.4441 55.2642 23.2443H55.0718L55.2319 21.9889C54.9969 21.925 54.754 21.8932 54.5101 21.8947C53.9324 21.8947 53.3069 22.0518 52.9218 22.287C52.7454 22.4595 52.5848 23.1499 52.5848 23.354L53.724 23.2443L52.4323 32.9886C52.6728 33.0518 52.9295 33.0672 53.2345 33.0672C53.6035 33.0672 54.0206 33.0356 54.2773 32.9886L54.6382 29.5528C54.9434 29.7253 55.4568 29.8039 55.9217 29.8039C58.5375 29.8039 59.9492 27.3555 59.9492 24.7823C59.9492 22.5535 58.9381 21.8007 57.6711 21.8007ZM65.5393 27.4972C65.1062 28.109 64.545 28.4386 63.9347 28.4386C63.1969 28.4386 62.7636 27.9835 62.7636 26.7124C62.7636 25.8809 62.9722 24.7508 63.4696 23.9662C63.8387 23.3855 64.4807 22.9304 65.2345 22.9304C65.5553 22.9304 65.8763 23.0089 66.117 23.1344L65.5393 27.4972ZM67.2561 28.0774L68.4758 18.1912C68.2674 18.1442 67.8823 18.0972 67.6574 18.0972C66.9676 18.0972 66.3096 18.2539 65.8603 18.4891C65.6839 18.662 65.5235 19.337 65.5235 19.5565L66.6469 19.4464L66.2778 22.0518C65.8932 21.8875 65.4781 21.802 65.0584 21.8007C63.7748 21.8007 62.6675 22.4757 61.9617 23.4482C61.2876 24.3896 60.9186 25.7079 60.9186 26.9635C60.9186 28.988 61.8814 29.8039 63.1649 29.8039C64.0796 29.8039 64.946 29.3803 65.4752 28.5953H65.5878C65.6518 28.9564 65.8125 29.4743 66.0049 29.8039C66.5503 29.8039 67.6574 29.6159 68.1708 29.4116C68.3314 29.1446 68.5078 28.5798 68.5078 28.2661L67.3206 28.3762C67.3046 28.3131 67.2561 28.1406 67.2561 28.0774ZM74.1149 21.8007C72.9277 21.8007 72.2697 22.6793 71.981 23.6207H71.7886L71.981 21.9889C71.7513 21.9259 71.5138 21.8942 71.2752 21.8947C70.6815 21.8947 70.0717 22.0518 69.6867 22.287C69.5098 22.4595 69.3336 23.1496 69.3336 23.3542L70.4888 23.2443L69.6544 29.4904C69.8631 29.5528 70.1516 29.5689 70.4568 29.5689C70.8258 29.5689 71.2429 29.5369 71.4996 29.4904L71.965 24.8139C72.3338 23.9195 72.9918 23.4012 73.7619 23.4012C74.1149 23.4012 74.5483 23.4956 74.885 23.6993C74.9814 23.4482 75.0294 23.119 75.0294 22.7894C75.0294 22.4757 74.9814 22.1615 74.885 21.9263C74.6926 21.8477 74.3876 21.8007 74.1149 21.8007ZM79.629 27.4813C79.2279 28.1092 78.6823 28.4543 78.1208 28.4543C77.4468 28.4543 77.03 27.968 77.03 26.744C77.03 25.9435 77.2386 24.6568 77.688 23.9665C78.0405 23.4012 78.7626 22.8993 79.4686 22.8993C79.7093 22.8993 80.0624 22.9619 80.271 23.0559L79.629 27.4813ZM81.3619 28.0774L82.0679 22.5537C81.4582 22.146 80.576 21.8007 79.5167 21.8007C78.1371 21.8007 77.03 22.4125 76.3077 23.3701C75.57 24.3426 75.2008 25.6298 75.2008 26.9165C75.2008 28.9721 76.1315 29.8041 77.367 29.8041C78.2332 29.8041 79.0673 29.3803 79.581 28.5955H79.6933C79.7416 28.9567 79.918 29.4743 80.1106 29.8041C80.6561 29.8041 81.779 29.6159 82.2926 29.4118C82.4528 29.1446 82.6296 28.5796 82.6296 28.2661L81.4417 28.376C81.4102 28.3133 81.3619 28.1406 81.3619 28.0777V28.0774ZM91.3066 27.23L91.7237 23.2754H94.018C94.0663 23.0243 94.0986 22.7265 94.0986 22.4439C94.0986 22.3183 94.0986 22.2085 94.0821 22.0675H91.8843L92.1408 19.8232C91.7077 19.8232 91.0016 19.9647 90.6809 20.1528L90.1997 21.8947C90.0284 22.0132 89.6663 22.0502 89.2817 22.0673H86.3996L86.528 21.0157C86.7046 19.5719 87.3621 19.0698 87.9881 19.0698C88.1005 19.0698 88.2608 19.0857 88.3732 19.1488L88.2448 20.0116C88.5336 20.1837 89.1275 20.3569 89.5123 20.3569C89.769 19.823 90.0097 18.8975 90.0097 18.3168C89.3359 18.0972 88.6939 18.0026 88.1965 18.0026C86.6083 18.0026 85.1321 18.8816 84.8592 21.1097L84.7633 21.8947C84.4129 21.9585 84.0692 22.0531 83.7363 22.1776C83.5919 22.428 83.3993 22.9147 83.3515 23.2754H84.619L83.5439 31.8284C83.7683 31.8908 84.0413 31.9065 84.346 31.9065C84.715 31.9065 85.1321 31.8754 85.3888 31.8284L86.2873 23.2754H90.0714C89.7984 24.7978 89.4294 27.2146 89.4294 28.0463C89.4294 29.1444 89.9588 29.8039 91.2266 29.8039C91.788 29.8039 92.4941 29.6468 93.1518 29.3015C93.3442 29.0193 93.5369 28.4697 93.5369 28.1092C93.0715 28.2661 92.5419 28.3916 92.0927 28.3916C91.4027 28.3916 91.2266 28.0148 91.3066 27.23Z" fill="#F8F8F8"/>
<path fill-rule="evenodd" clip-rule="evenodd" d="M106.484 22.8656C106.472 22.8537 106.461 22.8413 106.449 22.8301C104.395 20.7647 100.504 19.109 99.3481 18.3231C99.2958 19.4342 98.8909 25.9938 96.5222 30.6081C98.1289 29.7151 101.672 27.576 104.94 24.4539C105.474 23.9432 105.989 23.4134 106.484 22.8656M110.036 18H99.9782C101.467 18.6242 104.794 20.3441 106.863 22.4633C108.698 20.3813 109.632 18.706 110.036 18ZM107.279 22.8897C108.975 24.7349 109.949 26.8882 110.372 28.0697V18.2328C109.9 19.6135 108.747 21.2465 107.279 22.8897Z" fill="#F8F8F8"/>
</g>
<defs>
<clipPath id="clip0_204_78">
<rect width="120" height="40" fill="white"/>
</clipPath>
</defs>
</svg>
